<svg width="24" height="21" viewBox="0 0 24 21" fill="none" xmlns="http://www.w3.org/2000/svg">
<g filter="url(#filter0_d_66_10)">
<path d="M18.9308 2.64136C17.6561 2.05646 16.2892 1.62553 14.8599 1.37872C14.8339 1.37396 14.8079 1.38586 14.7945 1.40967C14.6187 1.72235 14.4239 2.13026 14.2876 2.45088C12.7503 2.22074 11.221 2.22074 9.71527 2.45088C9.57887 2.12314 9.37707 1.72235 9.20048 1.40967C9.18707 1.38666 9.16107 1.37475 9.13504 1.37872C7.70659 1.62474 6.33963 2.05567 5.06411 2.64136C5.05307 2.64612 5.04361 2.65407 5.03732 2.66438C2.44449 6.53801 1.73421 10.3164 2.08265 14.048C2.08423 14.0663 2.09447 14.0837 2.10867 14.0948C3.81934 15.3511 5.47642 16.1138 7.10273 16.6193C7.12876 16.6273 7.15634 16.6177 7.1729 16.5963C7.55761 16.0709 7.90054 15.517 8.19456 14.9345C8.21192 14.9003 8.19535 14.8599 8.15989 14.8464C7.61594 14.64 7.098 14.3885 6.59977 14.1028C6.56037 14.0798 6.55721 14.0234 6.59347 13.9964C6.69831 13.9178 6.80318 13.8361 6.9033 13.7536C6.92141 13.7385 6.94665 13.7353 6.96794 13.7448C10.2411 15.2392 13.7846 15.2392 17.0191 13.7448C17.0404 13.7345 17.0657 13.7377 17.0846 13.7528C17.1847 13.8353 17.2895 13.9178 17.3952 13.9964C17.4314 14.0234 17.4291 14.0798 17.3897 14.1028C16.8914 14.394 16.3735 14.64 15.8288 14.8456C15.7933 14.8591 15.7775 14.9003 15.7949 14.9345C16.0952 15.5162 16.4381 16.0701 16.8157 16.5955C16.8315 16.6177 16.8599 16.6273 16.8859 16.6193C18.5201 16.1138 20.1772 15.3511 21.8879 14.0948C21.9028 14.0837 21.9123 14.0671 21.9139 14.0488C22.3309 9.73469 21.2154 5.98725 18.9568 2.66517C18.9513 2.65407 18.9419 2.64612 18.9308 2.64136ZM8.68335 11.7759C7.69792 11.7759 6.88594 10.8712 6.88594 9.7601C6.88594 8.64903 7.68217 7.74432 8.68335 7.74432C9.69239 7.74432 10.4965 8.65697 10.4807 9.7601C10.4807 10.8712 9.68451 11.7759 8.68335 11.7759ZM15.329 11.7759C14.3435 11.7759 13.5316 10.8712 13.5316 9.7601C13.5316 8.64903 14.3278 7.74432 15.329 7.74432C16.338 7.74432 17.1421 8.65697 17.1264 9.7601C17.1264 10.8712 16.338 11.7759 15.329 11.7759Z" fill="white"/>
</g>
<defs>
<filter id="filter0_d_66_10" x="-3" y="0.377686" width="30" height="25.2444" filterUnits="userSpaceOnUse" color-interpolation-filters="sRGB">
<feFlood flood-opacity="0" result="BackgroundImageFix"/>
<feColorMatrix in="SourceAlpha" type="matrix" values="0 0 0 0 0 0 0 0 0 0 0 0 0 0 0 0 0 0 127 0" result="hardAlpha"/>
<feOffset dy="4"/>
<feGaussianBlur stdDeviation="2.5"/>
<feComposite in2="hardAlpha" operator="out"/>
<feColorMatrix type="matrix" values="0 0 0 0 0 0 0 0 0 0 0 0 0 0 0 0 0 0 0.25 0"/>
<feBlend mode="normal" in2="BackgroundImageFix" result="effect1_dropShadow_66_10"/>
<feBlend mode="normal" in="SourceGraphic" in2="effect1_dropShadow_66_10" result="shape"/>
</filter>
</defs>
</svg>
